# xmcd
#
# Track frame offsets: 
#        150
#        16533
#        32093
#        45007
#        60123
#        78877
#        93550
#        110866
#        124532
#        139681
#        155500
#
# Disc length: 2245 seconds
#
# Revision: 0
# Processed by: cddbd v1.5.1PL0 Copyright (c) Steve Scherf et al.
# Submitted via: ExactAudioCopy v0.95a4
#
DISCID=7508c30b
DTITLE=Travis Tritt - My Honkey Tonk History
DYEAR=1900
DGENRE=
TTITLE0=Honkey Tonk History
TTITLE1=Too Far To Turn Around
TTITLE2=The Girl's Gone Wild
TTITLE3=What You Say
TTITLE4=Circus Leaving Town
TTITLE5=Monkey Around
TTITLE6=I See Me
TTITLE7=When Good Ol' Boys Go Bad
TTITLE8=We've Had It All
TTITLE9=It's All About The Money
TTITLE10=Small Doses
EXTD=
EXTT0=
EXTT1=
EXTT2=
EXTT3=
EXTT4=
EXTT5=
EXTT6=
EXTT7=
EXTT8=
EXTT9=
EXTT10=
PLAYORDER=
